<svg width="36" height="36" viewBox="0 0 36 36" fill="none" xmlns="http://www.w3.org/2000/svg">
<path fill-rule="evenodd" clip-rule="evenodd" d="M4 36H32C34.2091 36 36 34.2091 36 32V4C36 1.79086 34.2091 0 32 0H4C1.79086 0 0 1.79086 0 4V32C0 34.2091 1.79086 36 4 36Z" fill="#52057B"/>
<path fill-rule="evenodd" clip-rule="evenodd" d="M18 6C21.259 6 21.6677 6.01381 22.9476 6.07221C24.2248 6.13047 25.0972 6.33334 25.8605 6.63001C26.6496 6.93663 27.3188 7.34695 27.9859 8.01406C28.6531 8.68123 29.0634 9.35044 29.37 10.1395C29.6667 10.9028 29.8695 11.7752 29.9278 13.0524C29.9862 14.3323 30 14.741 30 18C30 21.259 29.9862 21.6677 29.9278 22.9476C29.8695 24.2248 29.6667 25.0972 29.37 25.8605C29.0634 26.6496 28.6531 27.3188 27.9859 27.9859C27.3188 28.6531 26.6496 29.0634 25.8605 29.37C25.0972 29.6667 24.2248 29.8695 22.9476 29.9278C21.6677 29.9862 21.259 30 18 30C14.741 30 14.3323 29.9862 13.0524 29.9278C11.7752 29.8695 10.9028 29.6667 10.1395 29.37C9.35044 29.0634 8.68123 28.6531 8.01406 27.9859C7.34695 27.3188 6.93663 26.6496 6.63001 25.8605C6.33334 25.0972 6.13047 24.2248 6.07221 22.9476C6.01381 21.6677 6 21.259 6 18C6 14.741 6.01381 14.3323 6.07221 13.0524C6.13047 11.7752 6.33334 10.9028 6.63001 10.1395C6.93663 9.35044 7.34695 8.68123 8.01406 8.01406C8.68123 7.34695 9.35044 6.93663 10.1395 6.63001C10.9028 6.33334 11.7752 6.13047 13.0524 6.07221C14.3323 6.01381 14.741 6 18 6ZM18 8.16216C14.7959 8.16216 14.4163 8.1744 13.151 8.23213C11.981 8.28548 11.3456 8.48097 10.9227 8.64531C10.3626 8.863 9.96287 9.12303 9.54297 9.54297C9.12303 9.96287 8.863 10.3626 8.64531 10.9227C8.48097 11.3456 8.28548 11.981 8.23213 13.151C8.1744 14.4163 8.16216 14.7959 8.16216 18C8.16216 21.2041 8.1744 21.5837 8.23213 22.849C8.28548 24.019 8.48097 24.6544 8.64531 25.0773C8.863 25.6374 9.12308 26.0371 9.54297 26.457C9.96287 26.877 10.3626 27.137 10.9227 27.3547C11.3456 27.519 11.981 27.7145 13.151 27.7679C14.4162 27.8256 14.7956 27.8378 18 27.8378C21.2044 27.8378 21.5839 27.8256 22.849 27.7679C24.019 27.7145 24.6544 27.519 25.0773 27.3547C25.6374 27.137 26.0371 26.877 26.457 26.457C26.877 26.0371 27.137 25.6374 27.3547 25.0773C27.519 24.6544 27.7145 24.019 27.7679 22.849C27.8256 21.5837 27.8378 21.2041 27.8378 18C27.8378 14.7959 27.8256 14.4163 27.7679 13.151C27.7145 11.981 27.519 11.3456 27.3547 10.9227C27.137 10.3626 26.877 9.96287 26.457 9.54297C26.0371 9.12303 25.6374 8.863 25.0773 8.64531C24.6544 8.48097 24.019 8.28548 22.849 8.23213C21.5837 8.1744 21.2041 8.16216 18 8.16216ZM18 11.8378C21.4033 11.8378 24.1622 14.5967 24.1622 18C24.1622 21.4033 21.4033 24.1622 18 24.1622C14.5967 24.1622 11.8378 21.4033 11.8378 18C11.8378 14.5967 14.5967 11.8378 18 11.8378ZM18 22C20.2091 22 22 20.2091 22 18C22 15.7908 20.2091 14 18 14C15.7908 14 14 15.7908 14 18C14 20.2091 15.7908 22 18 22ZM25.8456 11.5944C25.8456 12.3897 25.2009 13.0344 24.4056 13.0344C23.6104 13.0344 22.9656 12.3897 22.9656 11.5944C22.9656 10.7991 23.6104 10.1544 24.4056 10.1544C25.2009 10.1544 25.8456 10.7991 25.8456 11.5944Z" fill="white"/>
</svg>
