<svg width="36" height="36" viewBox="0 0 36 36" fill="none" xmlns="http://www.w3.org/2000/svg">
<path fill-rule="evenodd" clip-rule="evenodd" d="M4 36H32C34.2091 36 36 34.2091 36 32V4C36 1.79086 34.2091 0 32 0H4C1.79086 0 0 1.79086 0 4V32C0 34.2091 1.79086 36 4 36Z" fill="#52057B"/>
<path fill-rule="evenodd" clip-rule="evenodd" d="M17.9993 6.5C11.373 6.5 6 11.8935 6 18.5483C6 23.8703 9.438 28.3859 14.2072 29.9792C14.8072 30.0899 15.0262 29.7179 15.0262 29.3987C15.0262 29.1125 15.0158 28.355 15.0098 27.3498C11.6715 28.0779 10.9672 25.7347 10.9672 25.7347C10.422 24.3432 9.63525 23.9727 9.63525 23.9727C8.5455 23.225 9.71775 23.2401 9.71775 23.2401C10.9215 23.3252 11.5553 24.4818 11.5553 24.4818C12.6263 26.3228 14.364 25.7912 15.048 25.4825C15.1568 24.7039 15.4673 24.173 15.81 23.8718C13.1453 23.5676 10.344 22.5346 10.344 17.9181C10.344 16.6026 10.8113 15.5274 11.5793 14.6848C11.4555 14.3799 11.0437 13.1555 11.6962 11.4967C11.6962 11.4967 12.7043 11.173 14.9963 12.7316C15.954 12.4643 16.98 12.331 18.0007 12.3258C19.02 12.331 20.0468 12.4643 21.0053 12.7316C23.2958 11.173 24.3015 11.4967 24.3015 11.4967C24.9563 13.1555 24.5445 14.3799 24.4207 14.6848C25.1902 15.5274 25.6545 16.6026 25.6545 17.9181C25.6545 22.5459 22.8488 23.5646 20.1758 23.8628C20.6063 24.2348 20.9902 24.9697 20.9902 26.0939C20.9902 27.7045 20.9753 29.0034 20.9753 29.3987C20.9753 29.7209 21.1912 30.0959 21.8002 29.9777C26.565 28.3814 30 23.8688 30 18.5483C30 11.8935 24.627 6.5 17.9993 6.5Z" fill="white"/>
</svg>
