<svg width="146" height="146" viewBox="0 0 146 146" fill="none" xmlns="http://www.w3.org/2000/svg">
<g clip-path="url(#clip0_15002_221)">
<path d="M146 0H0V146H146V0Z" fill="white"/>
<path d="M48.7994 8.84848H44.2424V13.4054H48.7994V8.84848Z" fill="#52057B"/>
<path d="M53.2237 8.84848H48.6667V13.4054H53.2237V8.84848Z" fill="#52057B"/>
<path d="M57.6479 8.84848H53.0909V13.4054H57.6479V8.84848Z" fill="#52057B"/>
<path d="M62.0722 8.84848H57.5152V13.4054H62.0722V8.84848Z" fill="#52057B"/>
<path d="M84.1934 8.84848H79.6364V13.4054H84.1934V8.84848Z" fill="#52057B"/>
<path d="M88.6176 8.84848H84.0606V13.4054H88.6176V8.84848Z" fill="#52057B"/>
<path d="M93.0418 8.84848H88.4849V13.4054H93.0418V8.84848Z" fill="#52057B"/>
<path d="M48.7994 13.2727H44.2424V17.8297H48.7994V13.2727Z" fill="#52057B"/>
<path d="M53.2237 13.2727H48.6667V17.8297H53.2237V13.2727Z" fill="#52057B"/>
<path d="M57.6479 13.2727H53.0909V17.8297H57.6479V13.2727Z" fill="#52057B"/>
<path d="M62.0722 13.2727H57.5152V17.8297H62.0722V13.2727Z" fill="#52057B"/>
<path d="M66.4964 13.2727H61.9394V17.8297H66.4964V13.2727Z" fill="#52057B"/>
<path d="M75.3449 13.2727H70.7879V17.8297H75.3449V13.2727Z" fill="#52057B"/>
<path d="M84.1934 13.2727H79.6364V17.8297H84.1934V13.2727Z" fill="#52057B"/>
<path d="M88.6176 13.2727H84.0606V17.8297H88.6176V13.2727Z" fill="#52057B"/>
<path d="M48.7994 17.697H44.2424V22.2539H48.7994V17.697Z" fill="#52057B"/>
<path d="M66.4964 17.697H61.9394V22.2539H66.4964V17.697Z" fill="#52057B"/>
<path d="M70.9206 17.697H66.3636V22.2539H70.9206V17.697Z" fill="#52057B"/>
<path d="M75.3449 17.697H70.7879V22.2539H75.3449V17.697Z" fill="#52057B"/>
<path d="M93.0418 17.697H88.4849V22.2539H93.0418V17.697Z" fill="#52057B"/>
<path d="M97.4661 17.697H92.9091V22.2539H97.4661V17.697Z" fill="#52057B"/>
<path d="M101.89 17.697H97.3334V22.2539H101.89V17.697Z" fill="#52057B"/>
<path d="M57.6479 22.1212H53.0909V26.6782H57.6479V22.1212Z" fill="#52057B"/>
<path d="M70.9206 22.1212H66.3636V26.6782H70.9206V22.1212Z" fill="#52057B"/>
<path d="M84.1934 22.1212H79.6364V26.6782H84.1934V22.1212Z" fill="#52057B"/>
<path d="M88.6176 22.1212H84.0606V26.6782H88.6176V22.1212Z" fill="#52057B"/>
<path d="M57.6479 26.5455H53.0909V31.1024H57.6479V26.5455Z" fill="#52057B"/>
<path d="M62.0722 26.5455H57.5152V31.1024H62.0722V26.5455Z" fill="#52057B"/>
<path d="M75.3449 26.5455H70.7879V31.1024H75.3449V26.5455Z" fill="#52057B"/>
<path d="M88.6176 26.5455H84.0606V31.1024H88.6176V26.5455Z" fill="#52057B"/>
<path d="M93.0418 26.5455H88.4849V31.1024H93.0418V26.5455Z" fill="#52057B"/>
<path d="M97.4661 26.5455H92.9091V31.1024H97.4661V26.5455Z" fill="#52057B"/>
<path d="M48.7994 30.9697H44.2424V35.5267H48.7994V30.9697Z" fill="#52057B"/>
<path d="M53.2237 30.9697H48.6667V35.5267H53.2237V30.9697Z" fill="#52057B"/>
<path d="M70.9206 30.9697H66.3636V35.5267H70.9206V30.9697Z" fill="#52057B"/>
<path d="M75.3449 30.9697H70.7879V35.5267H75.3449V30.9697Z" fill="#52057B"/>
<path d="M84.1934 30.9697H79.6364V35.5267H84.1934V30.9697Z" fill="#52057B"/>
<path d="M88.6176 30.9697H84.0606V35.5267H88.6176V30.9697Z" fill="#52057B"/>
<path d="M48.7994 35.3939H44.2424V39.9509H48.7994V35.3939Z" fill="#52057B"/>
<path d="M57.6479 35.3939H53.0909V39.9509H57.6479V35.3939Z" fill="#52057B"/>
<path d="M66.4964 35.3939H61.9394V39.9509H66.4964V35.3939Z" fill="#52057B"/>
<path d="M75.3449 35.3939H70.7879V39.9509H75.3449V35.3939Z" fill="#52057B"/>
<path d="M84.1934 35.3939H79.6364V39.9509H84.1934V35.3939Z" fill="#52057B"/>
<path d="M93.0418 35.3939H88.4849V39.9509H93.0418V35.3939Z" fill="#52057B"/>
<path d="M101.89 35.3939H97.3334V39.9509H101.89V35.3939Z" fill="#52057B"/>
<path d="M48.7994 39.8182H44.2424V44.3751H48.7994V39.8182Z" fill="#52057B"/>
<path d="M53.2237 39.8182H48.6667V44.3751H53.2237V39.8182Z" fill="#52057B"/>
<path d="M57.6479 39.8182H53.0909V44.3751H57.6479V39.8182Z" fill="#52057B"/>
<path d="M75.3449 39.8182H70.7879V44.3751H75.3449V39.8182Z" fill="#52057B"/>
<path d="M84.1934 39.8182H79.6364V44.3751H84.1934V39.8182Z" fill="#52057B"/>
<path d="M88.6176 39.8182H84.0606V44.3751H88.6176V39.8182Z" fill="#52057B"/>
<path d="M93.0418 39.8182H88.4849V44.3751H93.0418V39.8182Z" fill="#52057B"/>
<path d="M97.4661 39.8182H92.9091V44.3751H97.4661V39.8182Z" fill="#52057B"/>
<path d="M22.254 44.2424H17.697V48.7994H22.254V44.2424Z" fill="#52057B"/>
<path d="M26.6782 44.2424H22.1212V48.7994H26.6782V44.2424Z" fill="#52057B"/>
<path d="M31.1024 44.2424H26.5455V48.7994H31.1024V44.2424Z" fill="#52057B"/>
<path d="M39.951 44.2424H35.394V48.7994H39.951V44.2424Z" fill="#52057B"/>
<path d="M48.7994 44.2424H44.2424V48.7994H48.7994V44.2424Z" fill="#52057B"/>
<path d="M53.2237 44.2424H48.6667V48.7994H53.2237V44.2424Z" fill="#52057B"/>
<path d="M62.0722 44.2424H57.5152V48.7994H62.0722V44.2424Z" fill="#52057B"/>
<path d="M70.9206 44.2424H66.3636V48.7994H70.9206V44.2424Z" fill="#52057B"/>
<path d="M75.3449 44.2424H70.7879V48.7994H75.3449V44.2424Z" fill="#52057B"/>
<path d="M101.89 44.2424H97.3334V48.7994H101.89V44.2424Z" fill="#52057B"/>
<path d="M106.315 44.2424H101.758V48.7994H106.315V44.2424Z" fill="#52057B"/>
<path d="M110.739 44.2424H106.182V48.7994H110.739V44.2424Z" fill="#52057B"/>
<path d="M115.163 44.2424H110.606V48.7994H115.163V44.2424Z" fill="#52057B"/>
<path d="M128.436 44.2424H123.879V48.7994H128.436V44.2424Z" fill="#52057B"/>
<path d="M132.86 44.2424H128.303V48.7994H132.86V44.2424Z" fill="#52057B"/>
<path d="M137.284 44.2424H132.727V48.7994H137.284V44.2424Z" fill="#52057B"/>
<path d="M13.4055 48.6667H8.84851V53.2236H13.4055V48.6667Z" fill="#52057B"/>
<path d="M17.8297 48.6667H13.2728V53.2236H17.8297V48.6667Z" fill="#52057B"/>
<path d="M22.254 48.6667H17.697V53.2236H22.254V48.6667Z" fill="#52057B"/>
<path d="M35.5267 48.6667H30.9697V53.2236H35.5267V48.6667Z" fill="#52057B"/>
<path d="M44.3752 48.6667H39.8182V53.2236H44.3752V48.6667Z" fill="#52057B"/>
<path d="M57.6479 48.6667H53.0909V53.2236H57.6479V48.6667Z" fill="#52057B"/>
<path d="M66.4964 48.6667H61.9394V53.2236H66.4964V48.6667Z" fill="#52057B"/>
<path d="M79.7691 48.6667H75.2122V53.2236H79.7691V48.6667Z" fill="#52057B"/>
<path d="M84.1934 48.6667H79.6364V53.2236H84.1934V48.6667Z" fill="#52057B"/>
<path d="M93.0418 48.6667H88.4849V53.2236H93.0418V48.6667Z" fill="#52057B"/>
<path d="M101.89 48.6667H97.3334V53.2236H101.89V48.6667Z" fill="#52057B"/>
<path d="M110.739 48.6667H106.182V53.2236H110.739V48.6667Z" fill="#52057B"/>
<path d="M119.587 48.6667H115.03V53.2236H119.587V48.6667Z" fill="#52057B"/>
<path d="M124.012 48.6667H119.455V53.2236H124.012V48.6667Z" fill="#52057B"/>
<path d="M137.284 48.6667H132.727V53.2236H137.284V48.6667Z" fill="#52057B"/>
<path d="M13.4055 53.0909H8.84851V57.6479H13.4055V53.0909Z" fill="#52057B"/>
<path d="M17.8297 53.0909H13.2728V57.6479H17.8297V53.0909Z" fill="#52057B"/>
<path d="M22.254 53.0909H17.697V57.6479H22.254V53.0909Z" fill="#52057B"/>
<path d="M26.6782 53.0909H22.1212V57.6479H26.6782V53.0909Z" fill="#52057B"/>
<path d="M35.5267 53.0909H30.9697V57.6479H35.5267V53.0909Z" fill="#52057B"/>
<path d="M39.951 53.0909H35.394V57.6479H39.951V53.0909Z" fill="#52057B"/>
<path d="M53.2237 53.0909H48.6667V57.6479H53.2237V53.0909Z" fill="#52057B"/>
<path d="M57.6479 53.0909H53.0909V57.6479H57.6479V53.0909Z" fill="#52057B"/>
<path d="M88.6176 53.0909H84.0606V57.6479H88.6176V53.0909Z" fill="#52057B"/>
<path d="M93.0418 53.0909H88.4849V57.6479H93.0418V53.0909Z" fill="#52057B"/>
<path d="M101.89 53.0909H97.3334V57.6479H101.89V53.0909Z" fill="#52057B"/>
<path d="M106.315 53.0909H101.758V57.6479H106.315V53.0909Z" fill="#52057B"/>
<path d="M110.739 53.0909H106.182V57.6479H110.739V53.0909Z" fill="#52057B"/>
<path d="M26.6782 57.5151H22.1212V62.0721H26.6782V57.5151Z" fill="#52057B"/>
<path d="M31.1024 57.5151H26.5455V62.0721H31.1024V57.5151Z" fill="#52057B"/>
<path d="M44.3752 57.5151H39.8182V62.0721H44.3752V57.5151Z" fill="#52057B"/>
<path d="M53.2237 57.5151H48.6667V62.0721H53.2237V57.5151Z" fill="#52057B"/>
<path d="M57.6479 57.5151H53.0909V62.0721H57.6479V57.5151Z" fill="#52057B"/>
<path d="M66.4964 57.5151H61.9394V62.0721H66.4964V57.5151Z" fill="#52057B"/>
<path d="M70.9206 57.5151H66.3636V62.0721H70.9206V57.5151Z" fill="#52057B"/>
<path d="M88.6176 57.5151H84.0606V62.0721H88.6176V57.5151Z" fill="#52057B"/>
<path d="M93.0418 57.5151H88.4849V62.0721H93.0418V57.5151Z" fill="#52057B"/>
<path d="M101.89 57.5151H97.3334V62.0721H101.89V57.5151Z" fill="#52057B"/>
<path d="M106.315 57.5151H101.758V62.0721H106.315V57.5151Z" fill="#52057B"/>
<path d="M110.739 57.5151H106.182V62.0721H110.739V57.5151Z" fill="#52057B"/>
<path d="M119.587 57.5151H115.03V62.0721H119.587V57.5151Z" fill="#52057B"/>
<path d="M124.012 57.5151H119.455V62.0721H124.012V57.5151Z" fill="#52057B"/>
<path d="M132.86 57.5151H128.303V62.0721H132.86V57.5151Z" fill="#52057B"/>
<path d="M17.8297 61.9394H13.2728V66.4964H17.8297V61.9394Z" fill="#52057B"/>
<path d="M22.254 61.9394H17.697V66.4964H22.254V61.9394Z" fill="#52057B"/>
<path d="M26.6782 61.9394H22.1212V66.4964H26.6782V61.9394Z" fill="#52057B"/>
<path d="M31.1024 61.9394H26.5455V66.4964H31.1024V61.9394Z" fill="#52057B"/>
<path d="M35.5267 61.9394H30.9697V66.4964H35.5267V61.9394Z" fill="#52057B"/>
<path d="M39.951 61.9394H35.394V66.4964H39.951V61.9394Z" fill="#52057B"/>
<path d="M62.0722 61.9394H57.5152V66.4964H62.0722V61.9394Z" fill="#52057B"/>
<path d="M75.3449 61.9394H70.7879V66.4964H75.3449V61.9394Z" fill="#52057B"/>
<path d="M79.7691 61.9394H75.2122V66.4964H79.7691V61.9394Z" fill="#52057B"/>
<path d="M93.0418 61.9394H88.4849V66.4964H93.0418V61.9394Z" fill="#52057B"/>
<path d="M101.89 61.9394H97.3334V66.4964H101.89V61.9394Z" fill="#52057B"/>
<path d="M106.315 61.9394H101.758V66.4964H106.315V61.9394Z" fill="#52057B"/>
<path d="M115.163 61.9394H110.606V66.4964H115.163V61.9394Z" fill="#52057B"/>
<path d="M128.436 61.9394H123.879V66.4964H128.436V61.9394Z" fill="#52057B"/>
<path d="M132.86 61.9394H128.303V66.4964H132.86V61.9394Z" fill="#52057B"/>
<path d="M137.284 61.9394H132.727V66.4964H137.284V61.9394Z" fill="#52057B"/>
<path d="M13.4055 66.3636H8.84851V70.9206H13.4055V66.3636Z" fill="#52057B"/>
<path d="M17.8297 66.3636H13.2728V70.9206H17.8297V66.3636Z" fill="#52057B"/>
<path d="M22.254 66.3636H17.697V70.9206H22.254V66.3636Z" fill="#52057B"/>
<path d="M26.6782 66.3636H22.1212V70.9206H26.6782V66.3636Z" fill="#52057B"/>
<path d="M35.5267 66.3636H30.9697V70.9206H35.5267V66.3636Z" fill="#52057B"/>
<path d="M44.3752 66.3636H39.8182V70.9206H44.3752V66.3636Z" fill="#52057B"/>
<path d="M53.2237 66.3636H48.6667V70.9206H53.2237V66.3636Z" fill="#52057B"/>
<path d="M57.6479 66.3636H53.0909V70.9206H57.6479V66.3636Z" fill="#52057B"/>
<path d="M75.3449 66.3636H70.7879V70.9206H75.3449V66.3636Z" fill="#52057B"/>
<path d="M79.7691 66.3636H75.2122V70.9206H79.7691V66.3636Z" fill="#52057B"/>
<path d="M93.0418 66.3636H88.4849V70.9206H93.0418V66.3636Z" fill="#52057B"/>
<path d="M97.4661 66.3636H92.9091V70.9206H97.4661V66.3636Z" fill="#52057B"/>
<path d="M101.89 66.3636H97.3334V70.9206H101.89V66.3636Z" fill="#52057B"/>
<path d="M106.315 66.3636H101.758V70.9206H106.315V66.3636Z" fill="#52057B"/>
<path d="M110.739 66.3636H106.182V70.9206H110.739V66.3636Z" fill="#52057B"/>
<path d="M119.587 66.3636H115.03V70.9206H119.587V66.3636Z" fill="#52057B"/>
<path d="M124.012 66.3636H119.455V70.9206H124.012V66.3636Z" fill="#52057B"/>
<path d="M132.86 66.3636H128.303V70.9206H132.86V66.3636Z" fill="#52057B"/>
<path d="M137.284 66.3636H132.727V70.9206H137.284V66.3636Z" fill="#52057B"/>
<path d="M17.8297 70.7879H13.2728V75.3448H17.8297V70.7879Z" fill="#52057B"/>
<path d="M39.951 70.7879H35.394V75.3448H39.951V70.7879Z" fill="#52057B"/>
<path d="M44.3752 70.7879H39.8182V75.3448H44.3752V70.7879Z" fill="#52057B"/>
<path d="M53.2237 70.7879H48.6667V75.3448H53.2237V70.7879Z" fill="#52057B"/>
<path d="M57.6479 70.7879H53.0909V75.3448H57.6479V70.7879Z" fill="#52057B"/>
<path d="M62.0722 70.7879H57.5152V75.3448H62.0722V70.7879Z" fill="#52057B"/>
<path d="M66.4964 70.7879H61.9394V75.3448H66.4964V70.7879Z" fill="#52057B"/>
<path d="M84.1934 70.7879H79.6364V75.3448H84.1934V70.7879Z" fill="#52057B"/>
<path d="M88.6176 70.7879H84.0606V75.3448H88.6176V70.7879Z" fill="#52057B"/>
<path d="M101.89 70.7879H97.3334V75.3448H101.89V70.7879Z" fill="#52057B"/>
<path d="M106.315 70.7879H101.758V75.3448H106.315V70.7879Z" fill="#52057B"/>
<path d="M115.163 70.7879H110.606V75.3448H115.163V70.7879Z" fill="#52057B"/>
<path d="M17.8297 75.2121H13.2728V79.7691H17.8297V75.2121Z" fill="#52057B"/>
<path d="M22.254 75.2121H17.697V79.7691H22.254V75.2121Z" fill="#52057B"/>
<path d="M31.1024 75.2121H26.5455V79.7691H31.1024V75.2121Z" fill="#52057B"/>
<path d="M35.5267 75.2121H30.9697V79.7691H35.5267V75.2121Z" fill="#52057B"/>
<path d="M48.7994 75.2121H44.2424V79.7691H48.7994V75.2121Z" fill="#52057B"/>
<path d="M53.2237 75.2121H48.6667V79.7691H53.2237V75.2121Z" fill="#52057B"/>
<path d="M57.6479 75.2121H53.0909V79.7691H57.6479V75.2121Z" fill="#52057B"/>
<path d="M79.7691 75.2121H75.2122V79.7691H79.7691V75.2121Z" fill="#52057B"/>
<path d="M84.1934 75.2121H79.6364V79.7691H84.1934V75.2121Z" fill="#52057B"/>
<path d="M88.6176 75.2121H84.0606V79.7691H88.6176V75.2121Z" fill="#52057B"/>
<path d="M110.739 75.2121H106.182V79.7691H110.739V75.2121Z" fill="#52057B"/>
<path d="M119.587 75.2121H115.03V79.7691H119.587V75.2121Z" fill="#52057B"/>
<path d="M124.012 75.2121H119.455V79.7691H124.012V75.2121Z" fill="#52057B"/>
<path d="M137.284 75.2121H132.727V79.7691H137.284V75.2121Z" fill="#52057B"/>
<path d="M17.8297 79.6364H13.2728V84.1933H17.8297V79.6364Z" fill="#52057B"/>
<path d="M39.951 79.6364H35.394V84.1933H39.951V79.6364Z" fill="#52057B"/>
<path d="M48.7994 79.6364H44.2424V84.1933H48.7994V79.6364Z" fill="#52057B"/>
<path d="M66.4964 79.6364H61.9394V84.1933H66.4964V79.6364Z" fill="#52057B"/>
<path d="M70.9206 79.6364H66.3636V84.1933H70.9206V79.6364Z" fill="#52057B"/>
<path d="M88.6176 79.6364H84.0606V84.1933H88.6176V79.6364Z" fill="#52057B"/>
<path d="M93.0418 79.6364H88.4849V84.1933H93.0418V79.6364Z" fill="#52057B"/>
<path d="M101.89 79.6364H97.3334V84.1933H101.89V79.6364Z" fill="#52057B"/>
<path d="M106.315 79.6364H101.758V84.1933H106.315V79.6364Z" fill="#52057B"/>
<path d="M115.163 79.6364H110.606V84.1933H115.163V79.6364Z" fill="#52057B"/>
<path d="M119.587 79.6364H115.03V84.1933H119.587V79.6364Z" fill="#52057B"/>
<path d="M124.012 79.6364H119.455V84.1933H124.012V79.6364Z" fill="#52057B"/>
<path d="M128.436 79.6364H123.879V84.1933H128.436V79.6364Z" fill="#52057B"/>
<path d="M137.284 79.6364H132.727V84.1933H137.284V79.6364Z" fill="#52057B"/>
<path d="M13.4055 84.0606H8.84851V88.6176H13.4055V84.0606Z" fill="#52057B"/>
<path d="M17.8297 84.0606H13.2728V88.6176H17.8297V84.0606Z" fill="#52057B"/>
<path d="M22.254 84.0606H17.697V88.6176H22.254V84.0606Z" fill="#52057B"/>
<path d="M31.1024 84.0606H26.5455V88.6176H31.1024V84.0606Z" fill="#52057B"/>
<path d="M35.5267 84.0606H30.9697V88.6176H35.5267V84.0606Z" fill="#52057B"/>
<path d="M57.6479 84.0606H53.0909V88.6176H57.6479V84.0606Z" fill="#52057B"/>
<path d="M62.0722 84.0606H57.5152V88.6176H62.0722V84.0606Z" fill="#52057B"/>
<path d="M79.7691 84.0606H75.2122V88.6176H79.7691V84.0606Z" fill="#52057B"/>
<path d="M84.1934 84.0606H79.6364V88.6176H84.1934V84.0606Z" fill="#52057B"/>
<path d="M88.6176 84.0606H84.0606V88.6176H88.6176V84.0606Z" fill="#52057B"/>
<path d="M93.0418 84.0606H88.4849V88.6176H93.0418V84.0606Z" fill="#52057B"/>
<path d="M97.4661 84.0606H92.9091V88.6176H97.4661V84.0606Z" fill="#52057B"/>
<path d="M101.89 84.0606H97.3334V88.6176H101.89V84.0606Z" fill="#52057B"/>
<path d="M110.739 84.0606H106.182V88.6176H110.739V84.0606Z" fill="#52057B"/>
<path d="M115.163 84.0606H110.606V88.6176H115.163V84.0606Z" fill="#52057B"/>
<path d="M119.587 84.0606H115.03V88.6176H119.587V84.0606Z" fill="#52057B"/>
<path d="M124.012 84.0606H119.455V88.6176H124.012V84.0606Z" fill="#52057B"/>
<path d="M132.86 84.0606H128.303V88.6176H132.86V84.0606Z" fill="#52057B"/>
<path d="M137.284 84.0606H132.727V88.6176H137.284V84.0606Z" fill="#52057B"/>
<path d="M13.4055 88.4848H8.84851V93.0418H13.4055V88.4848Z" fill="#52057B"/>
<path d="M22.254 88.4848H17.697V93.0418H22.254V88.4848Z" fill="#52057B"/>
<path d="M31.1024 88.4848H26.5455V93.0418H31.1024V88.4848Z" fill="#52057B"/>
<path d="M35.5267 88.4848H30.9697V93.0418H35.5267V88.4848Z" fill="#52057B"/>
<path d="M39.951 88.4848H35.394V93.0418H39.951V88.4848Z" fill="#52057B"/>
<path d="M57.6479 88.4848H53.0909V93.0418H57.6479V88.4848Z" fill="#52057B"/>
<path d="M66.4964 88.4848H61.9394V93.0418H66.4964V88.4848Z" fill="#52057B"/>
<path d="M88.6176 88.4848H84.0606V93.0418H88.6176V88.4848Z" fill="#52057B"/>
<path d="M110.739 88.4848H106.182V93.0418H110.739V88.4848Z" fill="#52057B"/>
<path d="M115.163 88.4848H110.606V93.0418H115.163V88.4848Z" fill="#52057B"/>
<path d="M124.012 88.4848H119.455V93.0418H124.012V88.4848Z" fill="#52057B"/>
<path d="M13.4055 92.9091H8.84851V97.4661H13.4055V92.9091Z" fill="#52057B"/>
<path d="M31.1024 92.9091H26.5455V97.4661H31.1024V92.9091Z" fill="#52057B"/>
<path d="M35.5267 92.9091H30.9697V97.4661H35.5267V92.9091Z" fill="#52057B"/>
<path d="M48.7994 92.9091H44.2424V97.4661H48.7994V92.9091Z" fill="#52057B"/>
<path d="M53.2237 92.9091H48.6667V97.4661H53.2237V92.9091Z" fill="#52057B"/>
<path d="M62.0722 92.9091H57.5152V97.4661H62.0722V92.9091Z" fill="#52057B"/>
<path d="M79.7691 92.9091H75.2122V97.4661H79.7691V92.9091Z" fill="#52057B"/>
<path d="M84.1934 92.9091H79.6364V97.4661H84.1934V92.9091Z" fill="#52057B"/>
<path d="M88.6176 92.9091H84.0606V97.4661H88.6176V92.9091Z" fill="#52057B"/>
<path d="M93.0418 92.9091H88.4849V97.4661H93.0418V92.9091Z" fill="#52057B"/>
<path d="M110.739 92.9091H106.182V97.4661H110.739V92.9091Z" fill="#52057B"/>
<path d="M115.163 92.9091H110.606V97.4661H115.163V92.9091Z" fill="#52057B"/>
<path d="M124.012 92.9091H119.455V97.4661H124.012V92.9091Z" fill="#52057B"/>
<path d="M137.284 92.9091H132.727V97.4661H137.284V92.9091Z" fill="#52057B"/>
<path d="M13.4055 97.3333H8.84851V101.89H13.4055V97.3333Z" fill="#52057B"/>
<path d="M26.6782 97.3333H22.1212V101.89H26.6782V97.3333Z" fill="#52057B"/>
<path d="M31.1024 97.3333H26.5455V101.89H31.1024V97.3333Z" fill="#52057B"/>
<path d="M35.5267 97.3333H30.9697V101.89H35.5267V97.3333Z" fill="#52057B"/>
<path d="M39.951 97.3333H35.394V101.89H39.951V97.3333Z" fill="#52057B"/>
<path d="M44.3752 97.3333H39.8182V101.89H44.3752V97.3333Z" fill="#52057B"/>
<path d="M57.6479 97.3333H53.0909V101.89H57.6479V97.3333Z" fill="#52057B"/>
<path d="M62.0722 97.3333H57.5152V101.89H62.0722V97.3333Z" fill="#52057B"/>
<path d="M66.4964 97.3333H61.9394V101.89H66.4964V97.3333Z" fill="#52057B"/>
<path d="M70.9206 97.3333H66.3636V101.89H70.9206V97.3333Z" fill="#52057B"/>
<path d="M79.7691 97.3333H75.2122V101.89H79.7691V97.3333Z" fill="#52057B"/>
<path d="M88.6176 97.3333H84.0606V101.89H88.6176V97.3333Z" fill="#52057B"/>
<path d="M97.4661 97.3333H92.9091V101.89H97.4661V97.3333Z" fill="#52057B"/>
<path d="M101.89 97.3333H97.3334V101.89H101.89V97.3333Z" fill="#52057B"/>
<path d="M106.315 97.3333H101.758V101.89H106.315V97.3333Z" fill="#52057B"/>
<path d="M110.739 97.3333H106.182V101.89H110.739V97.3333Z" fill="#52057B"/>
<path d="M115.163 97.3333H110.606V101.89H115.163V97.3333Z" fill="#52057B"/>
<path d="M119.587 97.3333H115.03V101.89H119.587V97.3333Z" fill="#52057B"/>
<path d="M124.012 97.3333H119.455V101.89H124.012V97.3333Z" fill="#52057B"/>
<path d="M128.436 97.3333H123.879V101.89H128.436V97.3333Z" fill="#52057B"/>
<path d="M48.7994 101.758H44.2424V106.315H48.7994V101.758Z" fill="#52057B"/>
<path d="M62.0722 101.758H57.5152V106.315H62.0722V101.758Z" fill="#52057B"/>
<path d="M70.9206 101.758H66.3636V106.315H70.9206V101.758Z" fill="#52057B"/>
<path d="M88.6176 101.758H84.0606V106.315H88.6176V101.758Z" fill="#52057B"/>
<path d="M93.0418 101.758H88.4849V106.315H93.0418V101.758Z" fill="#52057B"/>
<path d="M97.4661 101.758H92.9091V106.315H97.4661V101.758Z" fill="#52057B"/>
<path d="M101.89 101.758H97.3334V106.315H101.89V101.758Z" fill="#52057B"/>
<path d="M119.587 101.758H115.03V106.315H119.587V101.758Z" fill="#52057B"/>
<path d="M124.012 101.758H119.455V106.315H124.012V101.758Z" fill="#52057B"/>
<path d="M132.86 101.758H128.303V106.315H132.86V101.758Z" fill="#52057B"/>
<path d="M137.284 101.758H132.727V106.315H137.284V101.758Z" fill="#52057B"/>
<path d="M57.6479 106.182H53.0909V110.739H57.6479V106.182Z" fill="#52057B"/>
<path d="M66.4964 106.182H61.9394V110.739H66.4964V106.182Z" fill="#52057B"/>
<path d="M70.9206 106.182H66.3636V110.739H70.9206V106.182Z" fill="#52057B"/>
<path d="M79.7691 106.182H75.2122V110.739H79.7691V106.182Z" fill="#52057B"/>
<path d="M88.6176 106.182H84.0606V110.739H88.6176V106.182Z" fill="#52057B"/>
<path d="M97.4661 106.182H92.9091V110.739H97.4661V106.182Z" fill="#52057B"/>
<path d="M101.89 106.182H97.3334V110.739H101.89V106.182Z" fill="#52057B"/>
<path d="M110.739 106.182H106.182V110.739H110.739V106.182Z" fill="#52057B"/>
<path d="M119.587 106.182H115.03V110.739H119.587V106.182Z" fill="#52057B"/>
<path d="M57.6479 110.606H53.0909V115.163H57.6479V110.606Z" fill="#52057B"/>
<path d="M62.0722 110.606H57.5152V115.163H62.0722V110.606Z" fill="#52057B"/>
<path d="M84.1934 110.606H79.6364V115.163H84.1934V110.606Z" fill="#52057B"/>
<path d="M97.4661 110.606H92.9091V115.163H97.4661V110.606Z" fill="#52057B"/>
<path d="M101.89 110.606H97.3334V115.163H101.89V110.606Z" fill="#52057B"/>
<path d="M119.587 110.606H115.03V115.163H119.587V110.606Z" fill="#52057B"/>
<path d="M124.012 110.606H119.455V115.163H124.012V110.606Z" fill="#52057B"/>
<path d="M137.284 110.606H132.727V115.163H137.284V110.606Z" fill="#52057B"/>
<path d="M48.7994 115.03H44.2424V119.587H48.7994V115.03Z" fill="#52057B"/>
<path d="M57.6479 115.03H53.0909V119.587H57.6479V115.03Z" fill="#52057B"/>
<path d="M66.4964 115.03H61.9394V119.587H66.4964V115.03Z" fill="#52057B"/>
<path d="M84.1934 115.03H79.6364V119.587H84.1934V115.03Z" fill="#52057B"/>
<path d="M93.0418 115.03H88.4849V119.587H93.0418V115.03Z" fill="#52057B"/>
<path d="M101.89 115.03H97.3334V119.587H101.89V115.03Z" fill="#52057B"/>
<path d="M106.315 115.03H101.758V119.587H106.315V115.03Z" fill="#52057B"/>
<path d="M110.739 115.03H106.182V119.587H110.739V115.03Z" fill="#52057B"/>
<path d="M115.163 115.03H110.606V119.587H115.163V115.03Z" fill="#52057B"/>
<path d="M119.587 115.03H115.03V119.587H119.587V115.03Z" fill="#52057B"/>
<path d="M124.012 115.03H119.455V119.587H124.012V115.03Z" fill="#52057B"/>
<path d="M128.436 115.03H123.879V119.587H128.436V115.03Z" fill="#52057B"/>
<path d="M132.86 115.03H128.303V119.587H132.86V115.03Z" fill="#52057B"/>
<path d="M48.7994 119.455H44.2424V124.011H48.7994V119.455Z" fill="#52057B"/>
<path d="M57.6479 119.455H53.0909V124.011H57.6479V119.455Z" fill="#52057B"/>
<path d="M66.4964 119.455H61.9394V124.011H66.4964V119.455Z" fill="#52057B"/>
<path d="M84.1934 119.455H79.6364V124.011H84.1934V119.455Z" fill="#52057B"/>
<path d="M93.0418 119.455H88.4849V124.011H93.0418V119.455Z" fill="#52057B"/>
<path d="M97.4661 119.455H92.9091V124.011H97.4661V119.455Z" fill="#52057B"/>
<path d="M101.89 119.455H97.3334V124.011H101.89V119.455Z" fill="#52057B"/>
<path d="M106.315 119.455H101.758V124.011H106.315V119.455Z" fill="#52057B"/>
<path d="M115.163 119.455H110.606V124.011H115.163V119.455Z" fill="#52057B"/>
<path d="M48.7994 123.879H44.2424V128.436H48.7994V123.879Z" fill="#52057B"/>
<path d="M53.2237 123.879H48.6667V128.436H53.2237V123.879Z" fill="#52057B"/>
<path d="M57.6479 123.879H53.0909V128.436H57.6479V123.879Z" fill="#52057B"/>
<path d="M62.0722 123.879H57.5152V128.436H62.0722V123.879Z" fill="#52057B"/>
<path d="M66.4964 123.879H61.9394V128.436H66.4964V123.879Z" fill="#52057B"/>
<path d="M70.9206 123.879H66.3636V128.436H70.9206V123.879Z" fill="#52057B"/>
<path d="M79.7691 123.879H75.2122V128.436H79.7691V123.879Z" fill="#52057B"/>
<path d="M93.0418 123.879H88.4849V128.436H93.0418V123.879Z" fill="#52057B"/>
<path d="M97.4661 123.879H92.9091V128.436H97.4661V123.879Z" fill="#52057B"/>
<path d="M101.89 123.879H97.3334V128.436H101.89V123.879Z" fill="#52057B"/>
<path d="M106.315 123.879H101.758V128.436H106.315V123.879Z" fill="#52057B"/>
<path d="M110.739 123.879H106.182V128.436H110.739V123.879Z" fill="#52057B"/>
<path d="M115.163 123.879H110.606V128.436H115.163V123.879Z" fill="#52057B"/>
<path d="M119.587 123.879H115.03V128.436H119.587V123.879Z" fill="#52057B"/>
<path d="M124.012 123.879H119.455V128.436H124.012V123.879Z" fill="#52057B"/>
<path d="M128.436 123.879H123.879V128.436H128.436V123.879Z" fill="#52057B"/>
<path d="M132.86 123.879H128.303V128.436H132.86V123.879Z" fill="#52057B"/>
<path d="M57.6479 128.303H53.0909V132.86H57.6479V128.303Z" fill="#52057B"/>
<path d="M62.0722 128.303H57.5152V132.86H62.0722V128.303Z" fill="#52057B"/>
<path d="M66.4964 128.303H61.9394V132.86H66.4964V128.303Z" fill="#52057B"/>
<path d="M75.3449 128.303H70.7879V132.86H75.3449V128.303Z" fill="#52057B"/>
<path d="M79.7691 128.303H75.2122V132.86H79.7691V128.303Z" fill="#52057B"/>
<path d="M84.1934 128.303H79.6364V132.86H84.1934V128.303Z" fill="#52057B"/>
<path d="M88.6176 128.303H84.0606V132.86H88.6176V128.303Z" fill="#52057B"/>
<path d="M93.0418 128.303H88.4849V132.86H93.0418V128.303Z" fill="#52057B"/>
<path d="M101.89 128.303H97.3334V132.86H101.89V128.303Z" fill="#52057B"/>
<path d="M106.315 128.303H101.758V132.86H106.315V128.303Z" fill="#52057B"/>
<path d="M119.587 128.303H115.03V132.86H119.587V128.303Z" fill="#52057B"/>
<path d="M132.86 128.303H128.303V132.86H132.86V128.303Z" fill="#52057B"/>
<path d="M53.2237 132.727H48.6667V137.284H53.2237V132.727Z" fill="#52057B"/>
<path d="M57.6479 132.727H53.0909V137.284H57.6479V132.727Z" fill="#52057B"/>
<path d="M70.9206 132.727H66.3636V137.284H70.9206V132.727Z" fill="#52057B"/>
<path d="M75.3449 132.727H70.7879V137.284H75.3449V132.727Z" fill="#52057B"/>
<path d="M93.0418 132.727H88.4849V137.284H93.0418V132.727Z" fill="#52057B"/>
<path d="M97.4661 132.727H92.9091V137.284H97.4661V132.727Z" fill="#52057B"/>
<path d="M106.315 132.727H101.758V137.284H106.315V132.727Z" fill="#52057B"/>
<path d="M110.739 132.727H106.182V137.284H110.739V132.727Z" fill="#52057B"/>
<path d="M119.587 132.727H115.03V137.284H119.587V132.727Z" fill="#52057B"/>
<path d="M128.436 132.727H123.879V137.284H128.436V132.727Z" fill="#52057B"/>
<path d="M8.84851 8.84848V39.8182H39.8182V8.84848H8.84851ZM35.394 35.3939H13.2728V13.2727H35.394V35.3939Z" fill="#52057B"/>
<path d="M106.182 8.84848V39.8182H137.152V8.84848H106.182ZM132.727 35.3939H110.606V13.2727H132.727V35.3939Z" fill="#52057B"/>
<path d="M8.84851 106.182V137.152H39.8182V106.182H8.84851ZM35.394 132.727H13.2728V110.606H35.394V132.727Z" fill="#52057B"/>
<path d="M30.9697 17.697H17.697V30.9697H30.9697V17.697Z" fill="#52057B"/>
<path d="M128.303 17.697H115.03V30.9697H128.303V17.697Z" fill="#52057B"/>
<path d="M30.9697 115.03H17.697V128.303H30.9697V115.03Z" fill="#52057B"/>
</g>
<defs>
<clipPath id="clip0_15002_221">
<rect width="146" height="146" fill="white"/>
</clipPath>
</defs>
</svg>
