<svg width="428" height="277" viewBox="0 0 428 277" fill="none" xmlns="http://www.w3.org/2000/svg">
<path d="M463 168.153V-313.644L231.5 -422.105L0 -313.644V168.153L231.5 276.621L463 168.153Z" fill="url(#paint0_linear_15002_184)"/>
<g style="mix-blend-mode:luminosity" opacity="0.4">
<path d="M2.32243 60.7773V168.854L117.492 222.897L232.661 168.854V60.7773L117.492 6.73387L2.32243 60.7773Z" fill="url(#paint1_linear_15002_184)"/>
<path d="M2.32243 -47.3046V60.7719L117.492 114.815L232.661 60.7719V-47.3046L117.492 -101.348L2.32243 -47.3046Z" fill="url(#paint2_linear_15002_184)"/>
<path d="M347.831 -101.32V6.75646L232.661 60.7999L117.492 6.75646V-101.32L232.661 -155.363L347.831 -101.32Z" fill="url(#paint3_linear_15002_184)"/>
<path d="M232.661 168.853V60.777L347.831 6.73352L463 60.777V168.853L347.831 222.897L232.661 168.853Z" fill="url(#paint4_linear_15002_184)"/>
<path d="M463 -47.3046V60.7719L347.831 114.815L232.661 60.7719V-47.3046L347.831 -101.348L463 -47.3046Z" fill="url(#paint5_linear_15002_184)"/>
<path d="M347.831 222.92V114.843L232.661 60.7999L117.492 114.843L117.492 222.92L232.661 276.963L347.831 222.92Z" fill="url(#paint6_linear_15002_184)"/>
</g>
<defs>
<linearGradient id="paint0_linear_15002_184" x1="-83.83" y1="58.3073" x2="506.867" y2="307.631" gradientUnits="userSpaceOnUse">
<stop stop-color="#52057B"/>
<stop offset="1" stop-color="#892CDC"/>
</linearGradient>
<linearGradient id="paint1_linear_15002_184" x1="117.492" y1="217.927" x2="34.1549" y2="43.4491" gradientUnits="userSpaceOnUse">
<stop stop-color="#8257E5"/>
<stop offset="1" stop-color="#FF3D6E"/>
</linearGradient>
<linearGradient id="paint2_linear_15002_184" x1="117.492" y1="109.845" x2="34.1549" y2="-64.6328" gradientUnits="userSpaceOnUse">
<stop stop-color="white"/>
<stop offset="1" stop-color="#FF008E" stop-opacity="0"/>
</linearGradient>
<linearGradient id="paint3_linear_15002_184" x1="117.492" y1="-107.394" x2="320.148" y2="42.639" gradientUnits="userSpaceOnUse">
<stop stop-color="#FF008E" stop-opacity="0"/>
<stop offset="1" stop-color="#FFCD1E"/>
</linearGradient>
<linearGradient id="paint4_linear_15002_184" x1="463" y1="174.927" x2="260.344" y2="24.8944" gradientUnits="userSpaceOnUse">
<stop stop-color="#8257E5"/>
<stop offset="1" stop-color="#4D00FF"/>
</linearGradient>
<linearGradient id="paint5_linear_15002_184" x1="347.831" y1="109.845" x2="431.168" y2="-64.6328" gradientUnits="userSpaceOnUse">
<stop stop-color="#8257E5"/>
<stop offset="1" stop-color="#BC6FF1" stop-opacity="0"/>
</linearGradient>
<linearGradient id="paint6_linear_15002_184" x1="232.661" y1="65.7705" x2="315.998" y2="240.248" gradientUnits="userSpaceOnUse">
<stop/>
<stop offset="1" stop-color="#52057B" stop-opacity="0"/>
</linearGradient>
</defs>
</svg>
